<svg width="97" height="72" viewBox="0 0 97 72" fill="none" xmlns="http://www.w3.org/2000/svg">
<g clip-path="url(#clip0_158_2517)">
<rect width="97" height="72" rx="6" fill="#134C92"/>
<path d="M105.5 84.9088L104.5 48.9088L88 47.9088L-4.5 -2.59119L-8.5 -4.09119L-19 76.4088L105.5 84.9088Z" fill="#DA2727" stroke="#DA2727"/>
<mask id="path-4-outside-1_158_2517" maskUnits="userSpaceOnUse" x="2" y="21.9088" width="91" height="28" fill="black">
<rect fill="white" x="2" y="21.9088" width="91" height="28"/>
<path d="M74.6927 48.8939C63.1785 48.898 40.1501 48.9063 28.6157 48.9083C17.0818 48.9104 17.0425 48.9063 16.9784 48.8929C16.9143 48.8796 16.8254 48.857 16.7355 48.8263C16.6455 48.7955 16.5546 48.7565 16.4502 48.7052C16.3458 48.654 16.228 48.5904 16.1153 48.5216C16.0026 48.4529 15.8952 48.3791 15.7866 48.2878C15.6781 48.1965 15.5685 48.0878 15.4631 47.9688C15.3576 47.8498 15.2564 47.7205 15.1695 47.5728C15.0827 47.4251 15.0104 47.2589 14.9483 47.0805C14.8863 46.902 14.8346 46.7112 14.8057 46.5686C14.7767 46.426 14.7705 46.3317 14.7705 45.909C14.7705 45.4864 14.7767 44.7356 14.7705 44.3099C14.7643 43.8842 14.7457 43.7837 14.7158 43.6586C14.6858 43.5334 14.6444 43.3837 14.601 43.2596C14.5576 43.1354 14.5122 43.037 14.4677 42.9426C14.4233 42.8482 14.3799 42.758 14.3189 42.6472C14.2579 42.5364 14.1793 42.4051 14.0894 42.281C13.9995 42.1569 13.8982 42.0399 13.7794 41.9117C13.6605 41.7835 13.5241 41.644 13.3887 41.5281C13.2533 41.4121 13.1189 41.3198 12.9825 41.2357C12.846 41.1516 12.7075 41.0757 12.5328 40.9906C12.3581 40.9054 12.1473 40.811 11.3948 40.5074C10.6424 40.2038 9.34834 39.6909 8.60964 39.3971C7.87101 39.1033 7.68783 39.0286 7.48952 38.9441C7.29122 38.8596 7.07781 38.7653 6.9002 38.6783C6.7226 38.5912 6.58082 38.5115 6.43464 38.4222C6.28847 38.333 6.13791 38.2344 5.98443 38.1241C5.83095 38.0139 5.67455 37.892 5.51887 37.7579C5.36319 37.6237 5.20826 37.4772 5.04088 37.3053C4.87351 37.1334 4.69372 36.9361 4.54536 36.7584C4.39699 36.5807 4.28004 36.4226 4.16092 36.2434C4.04178 36.0643 3.92046 35.8641 3.80571 35.6378C3.69096 35.4115 3.58279 35.1591 3.48559 34.9074C3.38838 34.6557 3.30214 34.4047 3.23344 34.1545C3.16473 33.9043 3.11357 33.6547 3.07557 33.3857C3.03756 33.1166 3.01271 32.8279 3.00394 32.5501C2.99516 32.2723 3.00247 32.0054 3.01197 31.8008C3.02147 31.5963 3.03317 31.4541 3.0624 31.2844C3.09163 31.1147 3.13841 30.9174 3.19541 30.7041C3.25242 30.4909 3.31966 30.2617 3.4059 30.0085C3.49215 29.7554 3.59739 29.4783 3.69094 29.2564C3.78449 29.0344 3.86634 28.8676 3.97159 28.679C4.07683 28.4904 4.20547 28.2801 4.32533 28.0973C4.44519 27.9145 4.55629 27.7593 4.66738 27.6099C4.77847 27.4605 4.88956 27.3169 5.01893 27.1616C5.1483 27.0064 5.29592 26.8396 5.43552 26.6967C5.57512 26.5538 5.70668 26.4348 5.8565 26.3028C6.00633 26.1708 6.17442 26.0257 6.3418 25.893C6.50917 25.7603 6.6758 25.6399 6.85853 25.5173C7.04125 25.3947 7.24003 25.27 7.44834 25.1459C7.65664 25.0219 7.87444 24.8986 8.14047 24.7601C8.4065 24.6215 8.72077 24.4678 9.05139 24.3192C9.38202 24.1706 9.72897 24.0273 10.0585 23.8997C10.3881 23.7721 10.7002 23.6603 10.9923 23.5666C11.2844 23.4729 11.5564 23.3973 11.8773 23.3204C12.1983 23.2434 12.5681 23.1651 12.9401 23.1005C13.3121 23.036 13.6863 22.9852 14.0261 22.9555C14.366 22.9257 14.6715 22.917 17.4824 22.9127C20.2934 22.9083 25.6094 22.9083 28.2768 22.9094C30.944 22.9105 30.9624 22.9127 31.045 22.9355C31.1276 22.9584 31.2745 23.0019 31.4359 23.0619C31.5973 23.1219 31.7731 23.1983 31.9535 23.299C32.1339 23.3998 32.319 23.525 32.4786 23.6532C32.6383 23.7814 32.7727 23.9127 32.8926 24.043C33.0125 24.1733 33.1179 24.3025 33.2326 24.4728C33.3474 24.6431 33.4714 24.8544 33.5629 25.0621C33.6543 25.2698 33.7132 25.4739 33.7566 25.734C33.8 25.994 33.828 26.3099 33.8352 26.554C33.8424 26.7982 33.829 26.9705 33.7954 27.1941C33.7618 27.4177 33.708 27.6926 33.6372 27.9465C33.5664 28.2004 33.4786 28.4332 33.3789 28.6461C33.2791 28.8589 33.1675 29.0517 33.0461 29.2359C32.9247 29.4201 32.7935 29.5957 32.6373 29.7735C32.4811 29.9512 32.2999 30.1311 32.0967 30.3124C31.8935 30.4937 31.6684 30.6765 31.4667 30.8259C31.265 30.9753 31.0867 31.0914 30.8922 31.2045C30.6978 31.3177 30.4873 31.4279 30.2593 31.5396C30.0313 31.6513 29.7857 31.7645 29.5343 31.8573C29.2829 31.9502 29.0256 32.0227 28.7245 32.0894C28.4234 32.1562 28.0784 32.2171 27.7656 32.2534C27.4528 32.2896 27.1722 32.3012 25.0809 32.307C22.9896 32.3128 19.0878 32.3128 17.1193 32.3154C15.1508 32.3179 15.1157 32.3229 15.0423 32.3424C14.9689 32.3618 14.8573 32.3957 14.7358 32.4429C14.6144 32.4901 14.4831 32.5506 14.373 32.6054C14.263 32.6603 14.1741 32.7096 14.0862 32.7721C13.9983 32.8347 13.9115 32.9106 13.8242 33.004C13.7368 33.0973 13.649 33.2081 13.5725 33.3235C13.496 33.4389 13.4309 33.5589 13.3782 33.6697C13.3254 33.7805 13.2851 33.882 13.2577 33.9872C13.2304 34.0923 13.2159 34.2011 13.2076 34.358C13.1994 34.515 13.1973 34.7201 13.2045 34.866C13.2117 35.0119 13.2282 35.0985 13.2511 35.1919C13.274 35.2853 13.3032 35.3854 13.3464 35.492C13.3895 35.5986 13.4465 35.7117 13.5123 35.814C13.5781 35.9163 13.6526 36.0077 13.7601 36.1215C13.8675 36.2354 14.0078 36.3718 14.1737 36.503C14.3396 36.6343 14.5311 36.7605 14.7826 36.9245C15.0342 37.0884 15.3457 37.29 16.4627 38.0268C17.5798 38.7636 19.5023 40.0355 20.571 40.7331C21.6397 41.4306 21.8547 41.5537 22.1504 41.7178C22.446 41.8819 22.8222 42.0871 23.1943 42.2635C23.5664 42.4399 23.9343 42.5876 24.3168 42.7313C24.6992 42.8749 25.0961 43.0144 25.46 43.1231C25.8238 43.2318 26.1545 43.3098 26.5018 43.3795C26.8491 43.4493 27.2129 43.5108 27.5333 43.558C27.8538 43.6052 28.1308 43.638 29.4476 43.6544C30.7645 43.6708 33.121 43.6708 34.3458 43.6616C35.5706 43.6524 35.6636 43.6339 35.7794 43.5898C35.8951 43.5457 36.0336 43.4759 36.1824 43.3888C36.3313 43.3016 36.4905 43.1969 36.6331 43.082C36.7757 42.9672 36.9018 42.842 37.0052 42.7148C37.1085 42.5876 37.1891 42.4584 37.2605 42.324C37.3318 42.1897 37.3938 42.0502 37.4403 41.8881C37.4868 41.726 37.5178 41.5414 37.5385 41.0172C37.5592 40.4931 37.5695 39.6294 37.584 39.1339C37.5984 38.6384 37.6171 38.5112 37.6501 38.3502C37.6832 38.1891 37.7307 37.9943 37.7762 37.8209C37.8217 37.6475 37.8651 37.4957 37.924 37.3265C37.9829 37.1572 38.0574 36.9705 38.1452 36.79C38.2331 36.6095 38.3344 36.4351 38.4667 36.2268C38.599 36.0186 38.7623 35.7765 38.9442 35.5129C39.1261 35.2493 39.3266 34.9641 40.3526 33.4842C41.3785 32.0043 43.2298 29.3298 44.2052 27.9228C45.1805 26.5159 45.2799 26.3767 45.4378 26.1997C45.5957 26.0227 45.812 25.808 46.0664 25.5933C46.3207 25.3786 46.6131 25.1639 46.8791 25.0043C47.1451 24.8448 47.3849 24.7403 47.6918 24.633C47.9988 24.5256 48.373 24.4154 48.7413 24.3457C49.1097 24.2761 49.4722 24.2471 49.7763 24.2355C50.0803 24.2239 50.3259 24.2297 50.6065 24.2616C50.8872 24.2935 51.2029 24.3516 51.4923 24.4241C51.7817 24.4966 52.0449 24.5837 52.3518 24.7171C52.6588 24.8506 53.0096 25.0305 53.454 25.2858C53.8983 25.5411 54.4362 25.8719 59.0232 28.5904C63.6102 31.3089 72.246 36.4151 76.5966 38.9769C80.9467 41.5387 81.011 41.5561 81.1455 41.5706C81.28 41.5852 81.4846 41.5967 81.6922 41.588C81.8997 41.5793 82.1102 41.5503 82.2827 41.4952C82.4551 41.4401 82.5896 41.3588 82.73 41.2689C82.8703 41.179 83.0165 41.0803 83.1626 40.9353C83.3088 40.7902 83.455 40.5987 83.566 40.4043C83.6771 40.21 83.7531 40.0127 83.8028 39.7632C83.8526 39.5137 83.8759 39.2119 83.8701 38.9102C83.8643 38.6085 83.8292 38.3067 83.7882 38.0398C83.7473 37.7729 83.7005 37.5408 83.6362 37.2971C83.5719 37.0534 83.4901 36.7981 83.417 36.5921C83.3439 36.3861 83.2796 36.2294 83.1802 36.0263C83.0808 35.8232 82.9463 35.5738 82.7885 35.3271C82.6306 35.0805 82.4494 34.8368 82.2506 34.6105C82.0518 34.3842 81.8354 34.1753 81.5899 33.9693C81.3443 33.7633 81.0695 33.5602 80.8064 33.3832C80.5433 33.2063 80.2918 33.0554 80.0375 32.9306C79.7832 32.8059 79.5259 32.7072 79.1751 32.5854C78.8243 32.4635 78.3799 32.3185 78.0145 32.1937C77.6491 32.069 77.3626 31.9645 77.1521 31.8804C76.9416 31.7962 76.8071 31.7324 76.658 31.6541C76.5089 31.5757 76.3452 31.4829 76.1844 31.3698C76.0236 31.2566 75.8658 31.1232 75.705 30.9549C75.5442 30.7866 75.3804 30.5835 75.2372 30.3717C75.0939 30.1599 74.9712 29.9394 74.8717 29.6812C74.7723 29.423 74.6963 29.1271 74.6583 28.805C74.6203 28.483 74.6203 28.1348 74.6466 27.8679C74.6729 27.601 74.7255 27.4153 74.7928 27.2209C74.86 27.0265 74.9419 26.8234 75.0501 26.6174C75.1582 26.4114 75.2927 26.2026 75.4623 25.9936C75.6318 25.7847 75.8365 25.5759 76.0441 25.4105C76.2516 25.2451 76.4621 25.1233 76.6843 25.013C76.9065 24.9028 77.1404 24.8041 77.3918 24.7316C77.6432 24.6591 77.9122 24.6126 78.1607 24.5952C78.4091 24.5778 78.6372 24.5894 78.8331 24.6155C79.0289 24.6417 79.1926 24.6823 79.6955 24.839C80.1983 24.9956 81.0403 25.2684 82.622 25.8022C84.2035 26.336 86.5248 27.131 87.7058 27.5401C88.8869 27.9492 88.9278 27.9724 88.9921 28.0159C89.0565 28.0594 89.1442 28.1232 89.2231 28.2045C89.302 28.2857 89.3722 28.3844 89.4248 28.4801C89.4774 28.5759 89.5125 28.6687 89.5388 28.7673C89.5651 28.866 89.5826 28.9704 89.5885 29.0952C89.5943 29.2199 89.5885 29.365 89.4978 30.6126C89.4072 31.8602 89.2318 34.2101 89.1529 35.4055C89.074 36.6008 89.0915 36.6415 89.1149 36.6937C89.1383 36.7459 89.1675 36.8097 89.2143 36.8707C89.2611 36.9316 89.3254 36.9896 89.3927 37.0331C89.4599 37.0766 89.5301 37.1056 89.6382 37.1317C89.7464 37.1578 89.8926 37.181 90.2112 37.242C90.5299 37.3029 91.021 37.4015 91.3046 37.4683C91.5882 37.535 91.6642 37.5698 91.7314 37.6076C91.7987 37.6453 91.8571 37.6859 91.901 37.7439C91.9448 37.802 91.974 37.8774 91.9886 37.9673C92.0033 38.0573 92.0033 38.1617 91.9916 39.1163C91.9799 40.0708 91.9565 41.8753 91.9389 42.8298C91.9214 43.7844 91.9097 43.8888 91.8834 44.0397C91.8571 44.1905 91.8161 44.3878 91.746 44.6228C91.6758 44.8578 91.5764 45.1305 91.4653 45.3888C91.3542 45.647 91.2314 45.8907 91.0882 46.1257C90.9449 46.3607 90.7812 46.587 90.5444 46.8452C90.3076 47.1034 89.9977 47.3935 89.6849 47.6401C89.3721 47.8867 89.0564 48.0898 88.7494 48.2494C88.4425 48.4089 88.1443 48.525 87.8403 48.6149C87.5362 48.7049 87.2263 48.7687 86.9532 48.8102C86.68 48.8516 86.4436 48.8706 86.3253 48.8802C86.2071 48.8897 86.2071 48.8897 74.6929 48.8938L74.6927 48.8939Z"/>
</mask>
<path d="M74.6927 48.8939C63.1785 48.898 40.1501 48.9063 28.6157 48.9083C17.0818 48.9104 17.0425 48.9063 16.9784 48.8929C16.9143 48.8796 16.8254 48.857 16.7355 48.8263C16.6455 48.7955 16.5546 48.7565 16.4502 48.7052C16.3458 48.654 16.228 48.5904 16.1153 48.5216C16.0026 48.4529 15.8952 48.3791 15.7866 48.2878C15.6781 48.1965 15.5685 48.0878 15.4631 47.9688C15.3576 47.8498 15.2564 47.7205 15.1695 47.5728C15.0827 47.4251 15.0104 47.2589 14.9483 47.0805C14.8863 46.902 14.8346 46.7112 14.8057 46.5686C14.7767 46.426 14.7705 46.3317 14.7705 45.909C14.7705 45.4864 14.7767 44.7356 14.7705 44.3099C14.7643 43.8842 14.7457 43.7837 14.7158 43.6586C14.6858 43.5334 14.6444 43.3837 14.601 43.2596C14.5576 43.1354 14.5122 43.037 14.4677 42.9426C14.4233 42.8482 14.3799 42.758 14.3189 42.6472C14.2579 42.5364 14.1793 42.4051 14.0894 42.281C13.9995 42.1569 13.8982 42.0399 13.7794 41.9117C13.6605 41.7835 13.5241 41.644 13.3887 41.5281C13.2533 41.4121 13.1189 41.3198 12.9825 41.2357C12.846 41.1516 12.7075 41.0757 12.5328 40.9906C12.3581 40.9054 12.1473 40.811 11.3948 40.5074C10.6424 40.2038 9.34834 39.6909 8.60964 39.3971C7.87101 39.1033 7.68783 39.0286 7.48952 38.9441C7.29122 38.8596 7.07781 38.7653 6.9002 38.6783C6.7226 38.5912 6.58082 38.5115 6.43464 38.4222C6.28847 38.333 6.13791 38.2344 5.98443 38.1241C5.83095 38.0139 5.67455 37.892 5.51887 37.7579C5.36319 37.6237 5.20826 37.4772 5.04088 37.3053C4.87351 37.1334 4.69372 36.9361 4.54536 36.7584C4.39699 36.5807 4.28004 36.4226 4.16092 36.2434C4.04178 36.0643 3.92046 35.8641 3.80571 35.6378C3.69096 35.4115 3.58279 35.1591 3.48559 34.9074C3.38838 34.6557 3.30214 34.4047 3.23344 34.1545C3.16473 33.9043 3.11357 33.6547 3.07557 33.3857C3.03756 33.1166 3.01271 32.8279 3.00394 32.5501C2.99516 32.2723 3.00247 32.0054 3.01197 31.8008C3.02147 31.5963 3.03317 31.4541 3.0624 31.2844C3.09163 31.1147 3.13841 30.9174 3.19541 30.7041C3.25242 30.4909 3.31966 30.2617 3.4059 30.0085C3.49215 29.7554 3.59739 29.4783 3.69094 29.2564C3.78449 29.0344 3.86634 28.8676 3.97159 28.679C4.07683 28.4904 4.20547 28.2801 4.32533 28.0973C4.44519 27.9145 4.55629 27.7593 4.66738 27.6099C4.77847 27.4605 4.88956 27.3169 5.01893 27.1616C5.1483 27.0064 5.29592 26.8396 5.43552 26.6967C5.57512 26.5538 5.70668 26.4348 5.8565 26.3028C6.00633 26.1708 6.17442 26.0257 6.3418 25.893C6.50917 25.7603 6.6758 25.6399 6.85853 25.5173C7.04125 25.3947 7.24003 25.27 7.44834 25.1459C7.65664 25.0219 7.87444 24.8986 8.14047 24.7601C8.4065 24.6215 8.72077 24.4678 9.05139 24.3192C9.38202 24.1706 9.72897 24.0273 10.0585 23.8997C10.3881 23.7721 10.7002 23.6603 10.9923 23.5666C11.2844 23.4729 11.5564 23.3973 11.8773 23.3204C12.1983 23.2434 12.5681 23.1651 12.9401 23.1005C13.3121 23.036 13.6863 22.9852 14.0261 22.9555C14.366 22.9257 14.6715 22.917 17.4824 22.9127C20.2934 22.9083 25.6094 22.9083 28.2768 22.9094C30.944 22.9105 30.9624 22.9127 31.045 22.9355C31.1276 22.9584 31.2745 23.0019 31.4359 23.0619C31.5973 23.1219 31.7731 23.1983 31.9535 23.299C32.1339 23.3998 32.319 23.525 32.4786 23.6532C32.6383 23.7814 32.7727 23.9127 32.8926 24.043C33.0125 24.1733 33.1179 24.3025 33.2326 24.4728C33.3474 24.6431 33.4714 24.8544 33.5629 25.0621C33.6543 25.2698 33.7132 25.4739 33.7566 25.734C33.8 25.994 33.828 26.3099 33.8352 26.554C33.8424 26.7982 33.829 26.9705 33.7954 27.1941C33.7618 27.4177 33.708 27.6926 33.6372 27.9465C33.5664 28.2004 33.4786 28.4332 33.3789 28.6461C33.2791 28.8589 33.1675 29.0517 33.0461 29.2359C32.9247 29.4201 32.7935 29.5957 32.6373 29.7735C32.4811 29.9512 32.2999 30.1311 32.0967 30.3124C31.8935 30.4937 31.6684 30.6765 31.4667 30.8259C31.265 30.9753 31.0867 31.0914 30.8922 31.2045C30.6978 31.3177 30.4873 31.4279 30.2593 31.5396C30.0313 31.6513 29.7857 31.7645 29.5343 31.8573C29.2829 31.9502 29.0256 32.0227 28.7245 32.0894C28.4234 32.1562 28.0784 32.2171 27.7656 32.2534C27.4528 32.2896 27.1722 32.3012 25.0809 32.307C22.9896 32.3128 19.0878 32.3128 17.1193 32.3154C15.1508 32.3179 15.1157 32.3229 15.0423 32.3424C14.9689 32.3618 14.8573 32.3957 14.7358 32.4429C14.6144 32.4901 14.4831 32.5506 14.373 32.6054C14.263 32.6603 14.1741 32.7096 14.0862 32.7721C13.9983 32.8347 13.9115 32.9106 13.8242 33.004C13.7368 33.0973 13.649 33.2081 13.5725 33.3235C13.496 33.4389 13.4309 33.5589 13.3782 33.6697C13.3254 33.7805 13.2851 33.882 13.2577 33.9872C13.2304 34.0923 13.2159 34.2011 13.2076 34.358C13.1994 34.515 13.1973 34.7201 13.2045 34.866C13.2117 35.0119 13.2282 35.0985 13.2511 35.1919C13.274 35.2853 13.3032 35.3854 13.3464 35.492C13.3895 35.5986 13.4465 35.7117 13.5123 35.814C13.5781 35.9163 13.6526 36.0077 13.7601 36.1215C13.8675 36.2354 14.0078 36.3718 14.1737 36.503C14.3396 36.6343 14.5311 36.7605 14.7826 36.9245C15.0342 37.0884 15.3457 37.29 16.4627 38.0268C17.5798 38.7636 19.5023 40.0355 20.571 40.7331C21.6397 41.4306 21.8547 41.5537 22.1504 41.7178C22.446 41.8819 22.8222 42.0871 23.1943 42.2635C23.5664 42.4399 23.9343 42.5876 24.3168 42.7313C24.6992 42.8749 25.0961 43.0144 25.46 43.1231C25.8238 43.2318 26.1545 43.3098 26.5018 43.3795C26.8491 43.4493 27.2129 43.5108 27.5333 43.558C27.8538 43.6052 28.1308 43.638 29.4476 43.6544C30.7645 43.6708 33.121 43.6708 34.3458 43.6616C35.5706 43.6524 35.6636 43.6339 35.7794 43.5898C35.8951 43.5457 36.0336 43.4759 36.1824 43.3888C36.3313 43.3016 36.4905 43.1969 36.6331 43.082C36.7757 42.9672 36.9018 42.842 37.0052 42.7148C37.1085 42.5876 37.1891 42.4584 37.2605 42.324C37.3318 42.1897 37.3938 42.0502 37.4403 41.8881C37.4868 41.726 37.5178 41.5414 37.5385 41.0172C37.5592 40.4931 37.5695 39.6294 37.584 39.1339C37.5984 38.6384 37.6171 38.5112 37.6501 38.3502C37.6832 38.1891 37.7307 37.9943 37.7762 37.8209C37.8217 37.6475 37.8651 37.4957 37.924 37.3265C37.9829 37.1572 38.0574 36.9705 38.1452 36.79C38.2331 36.6095 38.3344 36.4351 38.4667 36.2268C38.599 36.0186 38.7623 35.7765 38.9442 35.5129C39.1261 35.2493 39.3266 34.9641 40.3526 33.4842C41.3785 32.0043 43.2298 29.3298 44.2052 27.9228C45.1805 26.5159 45.2799 26.3767 45.4378 26.1997C45.5957 26.0227 45.812 25.808 46.0664 25.5933C46.3207 25.3786 46.6131 25.1639 46.8791 25.0043C47.1451 24.8448 47.3849 24.7403 47.6918 24.633C47.9988 24.5256 48.373 24.4154 48.7413 24.3457C49.1097 24.2761 49.4722 24.2471 49.7763 24.2355C50.0803 24.2239 50.3259 24.2297 50.6065 24.2616C50.8872 24.2935 51.2029 24.3516 51.4923 24.4241C51.7817 24.4966 52.0449 24.5837 52.3518 24.7171C52.6588 24.8506 53.0096 25.0305 53.454 25.2858C53.8983 25.5411 54.4362 25.8719 59.0232 28.5904C63.6102 31.3089 72.246 36.4151 76.5966 38.9769C80.9467 41.5387 81.011 41.5561 81.1455 41.5706C81.28 41.5852 81.4846 41.5967 81.6922 41.588C81.8997 41.5793 82.1102 41.5503 82.2827 41.4952C82.4551 41.4401 82.5896 41.3588 82.73 41.2689C82.8703 41.179 83.0165 41.0803 83.1626 40.9353C83.3088 40.7902 83.455 40.5987 83.566 40.4043C83.6771 40.21 83.7531 40.0127 83.8028 39.7632C83.8526 39.5137 83.8759 39.2119 83.8701 38.9102C83.8643 38.6085 83.8292 38.3067 83.7882 38.0398C83.7473 37.7729 83.7005 37.5408 83.6362 37.2971C83.5719 37.0534 83.4901 36.7981 83.417 36.5921C83.3439 36.3861 83.2796 36.2294 83.1802 36.0263C83.0808 35.8232 82.9463 35.5738 82.7885 35.3271C82.6306 35.0805 82.4494 34.8368 82.2506 34.6105C82.0518 34.3842 81.8354 34.1753 81.5899 33.9693C81.3443 33.7633 81.0695 33.5602 80.8064 33.3832C80.5433 33.2063 80.2918 33.0554 80.0375 32.9306C79.7832 32.8059 79.5259 32.7072 79.1751 32.5854C78.8243 32.4635 78.3799 32.3185 78.0145 32.1937C77.6491 32.069 77.3626 31.9645 77.1521 31.8804C76.9416 31.7962 76.8071 31.7324 76.658 31.6541C76.5089 31.5757 76.3452 31.4829 76.1844 31.3698C76.0236 31.2566 75.8658 31.1232 75.705 30.9549C75.5442 30.7866 75.3804 30.5835 75.2372 30.3717C75.0939 30.1599 74.9712 29.9394 74.8717 29.6812C74.7723 29.423 74.6963 29.1271 74.6583 28.805C74.6203 28.483 74.6203 28.1348 74.6466 27.8679C74.6729 27.601 74.7255 27.4153 74.7928 27.2209C74.86 27.0265 74.9419 26.8234 75.0501 26.6174C75.1582 26.4114 75.2927 26.2026 75.4623 25.9936C75.6318 25.7847 75.8365 25.5759 76.0441 25.4105C76.2516 25.2451 76.4621 25.1233 76.6843 25.013C76.9065 24.9028 77.1404 24.8041 77.3918 24.7316C77.6432 24.6591 77.9122 24.6126 78.1607 24.5952C78.4091 24.5778 78.6372 24.5894 78.8331 24.6155C79.0289 24.6417 79.1926 24.6823 79.6955 24.839C80.1983 24.9956 81.0403 25.2684 82.622 25.8022C84.2035 26.336 86.5248 27.131 87.7058 27.5401C88.8869 27.9492 88.9278 27.9724 88.9921 28.0159C89.0565 28.0594 89.1442 28.1232 89.2231 28.2045C89.302 28.2857 89.3722 28.3844 89.4248 28.4801C89.4774 28.5759 89.5125 28.6687 89.5388 28.7673C89.5651 28.866 89.5826 28.9704 89.5885 29.0952C89.5943 29.2199 89.5885 29.365 89.4978 30.6126C89.4072 31.8602 89.2318 34.2101 89.1529 35.4055C89.074 36.6008 89.0915 36.6415 89.1149 36.6937C89.1383 36.7459 89.1675 36.8097 89.2143 36.8707C89.2611 36.9316 89.3254 36.9896 89.3927 37.0331C89.4599 37.0766 89.5301 37.1056 89.6382 37.1317C89.7464 37.1578 89.8926 37.181 90.2112 37.242C90.5299 37.3029 91.021 37.4015 91.3046 37.4683C91.5882 37.535 91.6642 37.5698 91.7314 37.6076C91.7987 37.6453 91.8571 37.6859 91.901 37.7439C91.9448 37.802 91.974 37.8774 91.9886 37.9673C92.0033 38.0573 92.0033 38.1617 91.9916 39.1163C91.9799 40.0708 91.9565 41.8753 91.9389 42.8298C91.9214 43.7844 91.9097 43.8888 91.8834 44.0397C91.8571 44.1905 91.8161 44.3878 91.746 44.6228C91.6758 44.8578 91.5764 45.1305 91.4653 45.3888C91.3542 45.647 91.2314 45.8907 91.0882 46.1257C90.9449 46.3607 90.7812 46.587 90.5444 46.8452C90.3076 47.1034 89.9977 47.3935 89.6849 47.6401C89.3721 47.8867 89.0564 48.0898 88.7494 48.2494C88.4425 48.4089 88.1443 48.525 87.8403 48.6149C87.5362 48.7049 87.2263 48.7687 86.9532 48.8102C86.68 48.8516 86.4436 48.8706 86.3253 48.8802C86.2071 48.8897 86.2071 48.8897 74.6929 48.8938L74.6927 48.8939Z" fill="white"/>
<path d="M74.6927 48.8939C63.1785 48.898 40.1501 48.9063 28.6157 48.9083C17.0818 48.9104 17.0425 48.9063 16.9784 48.8929C16.9143 48.8796 16.8254 48.857 16.7355 48.8263C16.6455 48.7955 16.5546 48.7565 16.4502 48.7052C16.3458 48.654 16.228 48.5904 16.1153 48.5216C16.0026 48.4529 15.8952 48.3791 15.7866 48.2878C15.6781 48.1965 15.5685 48.0878 15.4631 47.9688C15.3576 47.8498 15.2564 47.7205 15.1695 47.5728C15.0827 47.4251 15.0104 47.2589 14.9483 47.0805C14.8863 46.902 14.8346 46.7112 14.8057 46.5686C14.7767 46.426 14.7705 46.3317 14.7705 45.909C14.7705 45.4864 14.7767 44.7356 14.7705 44.3099C14.7643 43.8842 14.7457 43.7837 14.7158 43.6586C14.6858 43.5334 14.6444 43.3837 14.601 43.2596C14.5576 43.1354 14.5122 43.037 14.4677 42.9426C14.4233 42.8482 14.3799 42.758 14.3189 42.6472C14.2579 42.5364 14.1793 42.4051 14.0894 42.281C13.9995 42.1569 13.8982 42.0399 13.7794 41.9117C13.6605 41.7835 13.5241 41.644 13.3887 41.5281C13.2533 41.4121 13.1189 41.3198 12.9825 41.2357C12.846 41.1516 12.7075 41.0757 12.5328 40.9906C12.3581 40.9054 12.1473 40.811 11.3948 40.5074C10.6424 40.2038 9.34834 39.6909 8.60964 39.3971C7.87101 39.1033 7.68783 39.0286 7.48952 38.9441C7.29122 38.8596 7.07781 38.7653 6.9002 38.6783C6.7226 38.5912 6.58082 38.5115 6.43464 38.4222C6.28847 38.333 6.13791 38.2344 5.98443 38.1241C5.83095 38.0139 5.67455 37.892 5.51887 37.7579C5.36319 37.6237 5.20826 37.4772 5.04088 37.3053C4.87351 37.1334 4.69372 36.9361 4.54536 36.7584C4.39699 36.5807 4.28004 36.4226 4.16092 36.2434C4.04178 36.0643 3.92046 35.8641 3.80571 35.6378C3.69096 35.4115 3.58279 35.1591 3.48559 34.9074C3.38838 34.6557 3.30214 34.4047 3.23344 34.1545C3.16473 33.9043 3.11357 33.6547 3.07557 33.3857C3.03756 33.1166 3.01271 32.8279 3.00394 32.5501C2.99516 32.2723 3.00247 32.0054 3.01197 31.8008C3.02147 31.5963 3.03317 31.4541 3.0624 31.2844C3.09163 31.1147 3.13841 30.9174 3.19541 30.7041C3.25242 30.4909 3.31966 30.2617 3.4059 30.0085C3.49215 29.7554 3.59739 29.4783 3.69094 29.2564C3.78449 29.0344 3.86634 28.8676 3.97159 28.679C4.07683 28.4904 4.20547 28.2801 4.32533 28.0973C4.44519 27.9145 4.55629 27.7593 4.66738 27.6099C4.77847 27.4605 4.88956 27.3169 5.01893 27.1616C5.1483 27.0064 5.29592 26.8396 5.43552 26.6967C5.57512 26.5538 5.70668 26.4348 5.8565 26.3028C6.00633 26.1708 6.17442 26.0257 6.3418 25.893C6.50917 25.7603 6.6758 25.6399 6.85853 25.5173C7.04125 25.3947 7.24003 25.27 7.44834 25.1459C7.65664 25.0219 7.87444 24.8986 8.14047 24.7601C8.4065 24.6215 8.72077 24.4678 9.05139 24.3192C9.38202 24.1706 9.72897 24.0273 10.0585 23.8997C10.3881 23.7721 10.7002 23.6603 10.9923 23.5666C11.2844 23.4729 11.5564 23.3973 11.8773 23.3204C12.1983 23.2434 12.5681 23.1651 12.9401 23.1005C13.3121 23.036 13.6863 22.9852 14.0261 22.9555C14.366 22.9257 14.6715 22.917 17.4824 22.9127C20.2934 22.9083 25.6094 22.9083 28.2768 22.9094C30.944 22.9105 30.9624 22.9127 31.045 22.9355C31.1276 22.9584 31.2745 23.0019 31.4359 23.0619C31.5973 23.1219 31.7731 23.1983 31.9535 23.299C32.1339 23.3998 32.319 23.525 32.4786 23.6532C32.6383 23.7814 32.7727 23.9127 32.8926 24.043C33.0125 24.1733 33.1179 24.3025 33.2326 24.4728C33.3474 24.6431 33.4714 24.8544 33.5629 25.0621C33.6543 25.2698 33.7132 25.4739 33.7566 25.734C33.8 25.994 33.828 26.3099 33.8352 26.554C33.8424 26.7982 33.829 26.9705 33.7954 27.1941C33.7618 27.4177 33.708 27.6926 33.6372 27.9465C33.5664 28.2004 33.4786 28.4332 33.3789 28.6461C33.2791 28.8589 33.1675 29.0517 33.0461 29.2359C32.9247 29.4201 32.7935 29.5957 32.6373 29.7735C32.4811 29.9512 32.2999 30.1311 32.0967 30.3124C31.8935 30.4937 31.6684 30.6765 31.4667 30.8259C31.265 30.9753 31.0867 31.0914 30.8922 31.2045C30.6978 31.3177 30.4873 31.4279 30.2593 31.5396C30.0313 31.6513 29.7857 31.7645 29.5343 31.8573C29.2829 31.9502 29.0256 32.0227 28.7245 32.0894C28.4234 32.1562 28.0784 32.2171 27.7656 32.2534C27.4528 32.2896 27.1722 32.3012 25.0809 32.307C22.9896 32.3128 19.0878 32.3128 17.1193 32.3154C15.1508 32.3179 15.1157 32.3229 15.0423 32.3424C14.9689 32.3618 14.8573 32.3957 14.7358 32.4429C14.6144 32.4901 14.4831 32.5506 14.373 32.6054C14.263 32.6603 14.1741 32.7096 14.0862 32.7721C13.9983 32.8347 13.9115 32.9106 13.8242 33.004C13.7368 33.0973 13.649 33.2081 13.5725 33.3235C13.496 33.4389 13.4309 33.5589 13.3782 33.6697C13.3254 33.7805 13.2851 33.882 13.2577 33.9872C13.2304 34.0923 13.2159 34.2011 13.2076 34.358C13.1994 34.515 13.1973 34.7201 13.2045 34.866C13.2117 35.0119 13.2282 35.0985 13.2511 35.1919C13.274 35.2853 13.3032 35.3854 13.3464 35.492C13.3895 35.5986 13.4465 35.7117 13.5123 35.814C13.5781 35.9163 13.6526 36.0077 13.7601 36.1215C13.8675 36.2354 14.0078 36.3718 14.1737 36.503C14.3396 36.6343 14.5311 36.7605 14.7826 36.9245C15.0342 37.0884 15.3457 37.29 16.4627 38.0268C17.5798 38.7636 19.5023 40.0355 20.571 40.7331C21.6397 41.4306 21.8547 41.5537 22.1504 41.7178C22.446 41.8819 22.8222 42.0871 23.1943 42.2635C23.5664 42.4399 23.9343 42.5876 24.3168 42.7313C24.6992 42.8749 25.0961 43.0144 25.46 43.1231C25.8238 43.2318 26.1545 43.3098 26.5018 43.3795C26.8491 43.4493 27.2129 43.5108 27.5333 43.558C27.8538 43.6052 28.1308 43.638 29.4476 43.6544C30.7645 43.6708 33.121 43.6708 34.3458 43.6616C35.5706 43.6524 35.6636 43.6339 35.7794 43.5898C35.8951 43.5457 36.0336 43.4759 36.1824 43.3888C36.3313 43.3016 36.4905 43.1969 36.6331 43.082C36.7757 42.9672 36.9018 42.842 37.0052 42.7148C37.1085 42.5876 37.1891 42.4584 37.2605 42.324C37.3318 42.1897 37.3938 42.0502 37.4403 41.8881C37.4868 41.726 37.5178 41.5414 37.5385 41.0172C37.5592 40.4931 37.5695 39.6294 37.584 39.1339C37.5984 38.6384 37.6171 38.5112 37.6501 38.3502C37.6832 38.1891 37.7307 37.9943 37.7762 37.8209C37.8217 37.6475 37.8651 37.4957 37.924 37.3265C37.9829 37.1572 38.0574 36.9705 38.1452 36.79C38.2331 36.6095 38.3344 36.4351 38.4667 36.2268C38.599 36.0186 38.7623 35.7765 38.9442 35.5129C39.1261 35.2493 39.3266 34.9641 40.3526 33.4842C41.3785 32.0043 43.2298 29.3298 44.2052 27.9228C45.1805 26.5159 45.2799 26.3767 45.4378 26.1997C45.5957 26.0227 45.812 25.808 46.0664 25.5933C46.3207 25.3786 46.6131 25.1639 46.8791 25.0043C47.1451 24.8448 47.3849 24.7403 47.6918 24.633C47.9988 24.5256 48.373 24.4154 48.7413 24.3457C49.1097 24.2761 49.4722 24.2471 49.7763 24.2355C50.0803 24.2239 50.3259 24.2297 50.6065 24.2616C50.8872 24.2935 51.2029 24.3516 51.4923 24.4241C51.7817 24.4966 52.0449 24.5837 52.3518 24.7171C52.6588 24.8506 53.0096 25.0305 53.454 25.2858C53.8983 25.5411 54.4362 25.8719 59.0232 28.5904C63.6102 31.3089 72.246 36.4151 76.5966 38.9769C80.9467 41.5387 81.011 41.5561 81.1455 41.5706C81.28 41.5852 81.4846 41.5967 81.6922 41.588C81.8997 41.5793 82.1102 41.5503 82.2827 41.4952C82.4551 41.4401 82.5896 41.3588 82.73 41.2689C82.8703 41.179 83.0165 41.0803 83.1626 40.9353C83.3088 40.7902 83.455 40.5987 83.566 40.4043C83.6771 40.21 83.7531 40.0127 83.8028 39.7632C83.8526 39.5137 83.8759 39.2119 83.8701 38.9102C83.8643 38.6085 83.8292 38.3067 83.7882 38.0398C83.7473 37.7729 83.7005 37.5408 83.6362 37.2971C83.5719 37.0534 83.4901 36.7981 83.417 36.5921C83.3439 36.3861 83.2796 36.2294 83.1802 36.0263C83.0808 35.8232 82.9463 35.5738 82.7885 35.3271C82.6306 35.0805 82.4494 34.8368 82.2506 34.6105C82.0518 34.3842 81.8354 34.1753 81.5899 33.9693C81.3443 33.7633 81.0695 33.5602 80.8064 33.3832C80.5433 33.2063 80.2918 33.0554 80.0375 32.9306C79.7832 32.8059 79.5259 32.7072 79.1751 32.5854C78.8243 32.4635 78.3799 32.3185 78.0145 32.1937C77.6491 32.069 77.3626 31.9645 77.1521 31.8804C76.9416 31.7962 76.8071 31.7324 76.658 31.6541C76.5089 31.5757 76.3452 31.4829 76.1844 31.3698C76.0236 31.2566 75.8658 31.1232 75.705 30.9549C75.5442 30.7866 75.3804 30.5835 75.2372 30.3717C75.0939 30.1599 74.9712 29.9394 74.8717 29.6812C74.7723 29.423 74.6963 29.1271 74.6583 28.805C74.6203 28.483 74.6203 28.1348 74.6466 27.8679C74.6729 27.601 74.7255 27.4153 74.7928 27.2209C74.86 27.0265 74.9419 26.8234 75.0501 26.6174C75.1582 26.4114 75.2927 26.2026 75.4623 25.9936C75.6318 25.7847 75.8365 25.5759 76.0441 25.4105C76.2516 25.2451 76.4621 25.1233 76.6843 25.013C76.9065 24.9028 77.1404 24.8041 77.3918 24.7316C77.6432 24.6591 77.9122 24.6126 78.1607 24.5952C78.4091 24.5778 78.6372 24.5894 78.8331 24.6155C79.0289 24.6417 79.1926 24.6823 79.6955 24.839C80.1983 24.9956 81.0403 25.2684 82.622 25.8022C84.2035 26.336 86.5248 27.131 87.7058 27.5401C88.8869 27.9492 88.9278 27.9724 88.9921 28.0159C89.0565 28.0594 89.1442 28.1232 89.2231 28.2045C89.302 28.2857 89.3722 28.3844 89.4248 28.4801C89.4774 28.5759 89.5125 28.6687 89.5388 28.7673C89.5651 28.866 89.5826 28.9704 89.5885 29.0952C89.5943 29.2199 89.5885 29.365 89.4978 30.6126C89.4072 31.8602 89.2318 34.2101 89.1529 35.4055C89.074 36.6008 89.0915 36.6415 89.1149 36.6937C89.1383 36.7459 89.1675 36.8097 89.2143 36.8707C89.2611 36.9316 89.3254 36.9896 89.3927 37.0331C89.4599 37.0766 89.5301 37.1056 89.6382 37.1317C89.7464 37.1578 89.8926 37.181 90.2112 37.242C90.5299 37.3029 91.021 37.4015 91.3046 37.4683C91.5882 37.535 91.6642 37.5698 91.7314 37.6076C91.7987 37.6453 91.8571 37.6859 91.901 37.7439C91.9448 37.802 91.974 37.8774 91.9886 37.9673C92.0033 38.0573 92.0033 38.1617 91.9916 39.1163C91.9799 40.0708 91.9565 41.8753 91.9389 42.8298C91.9214 43.7844 91.9097 43.8888 91.8834 44.0397C91.8571 44.1905 91.8161 44.3878 91.746 44.6228C91.6758 44.8578 91.5764 45.1305 91.4653 45.3888C91.3542 45.647 91.2314 45.8907 91.0882 46.1257C90.9449 46.3607 90.7812 46.587 90.5444 46.8452C90.3076 47.1034 89.9977 47.3935 89.6849 47.6401C89.3721 47.8867 89.0564 48.0898 88.7494 48.2494C88.4425 48.4089 88.1443 48.525 87.8403 48.6149C87.5362 48.7049 87.2263 48.7687 86.9532 48.8102C86.68 48.8516 86.4436 48.8706 86.3253 48.8802C86.2071 48.8897 86.2071 48.8897 74.6929 48.8938L74.6927 48.8939Z" stroke="white" stroke-width="2" mask="url(#path-4-outside-1_158_2517)"/>
</g>
<defs>
<clipPath id="clip0_158_2517">
<rect width="97" height="72" rx="7" fill="white"/>
</clipPath>
</defs>
</svg>
